<svg xmlns="http://www.w3.org/2000/svg" width="192" height="144" viewBox="0 0 192 144">
  <defs>
    <g id="sentry">
      <rect x="6" y="11" width="7" height="26" fill="#552820"/>
      <rect x="35" y="11" width="7" height="26" fill="#552820"/>
      <path d="M24 6l14 6v26H10V12z" fill="#8d3e34"/>
      <rect x="11" y="11" width="26" height="27" fill="none" stroke="#40221f" stroke-width="3"/>
      <rect x="15" y="14" width="18" height="20" fill="#b55347"/>
      <rect x="21" y="0" width="6" height="24" fill="#d9c56f"/>
      <rect x="16" y="18" width="16" height="12" fill="#40221f"/>
      <rect x="18" y="7" width="12" height="3" fill="#e0b64d"/>
      <rect x="17" y="34" width="14" height="3" fill="#2b1714" opacity="0.62"/>
    </g>
    <g id="patrol">
      <rect x="6" y="11" width="7" height="26" fill="#4f3322"/>
      <rect x="35" y="11" width="7" height="26" fill="#4f3322"/>
      <path d="M24 6l14 6v26H10V12z" fill="#8a5a2f"/>
      <rect x="11" y="11" width="26" height="27" fill="none" stroke="#3d281c" stroke-width="3"/>
      <rect x="15" y="14" width="18" height="20" fill="#a06b38"/>
      <rect x="21" y="0" width="6" height="24" fill="#ead58a"/>
      <rect x="16" y="18" width="16" height="12" fill="#3d281c"/>
      <rect x="17" y="7" width="14" height="3" fill="#f0d989"/>
      <rect x="16" y="34" width="16" height="3" fill="#2d1d16" opacity="0.62"/>
    </g>
    <g id="pursuit">
      <rect x="5" y="10" width="8" height="28" fill="#5f1f20"/>
      <rect x="35" y="10" width="8" height="28" fill="#5f1f20"/>
      <path d="M24 5l15 7v27H9V12z" fill="#a6342f"/>
      <rect x="10" y="10" width="28" height="29" fill="none" stroke="#401817" stroke-width="3"/>
      <rect x="14" y="13" width="20" height="22" fill="#bd453d"/>
      <rect x="20" y="0" width="8" height="25" fill="#f0b06a"/>
      <rect x="16" y="17" width="16" height="13" fill="#401817"/>
      <rect x="16" y="7" width="16" height="3" fill="#f2c176"/>
      <path d="M13 35h22l-4 5H17z" fill="#2b1413" opacity="0.72"/>
    </g>
  </defs>
  <use href="#sentry"/>
  <g transform="translate(48 0) rotate(90 24 24)"><use href="#sentry"/></g>
  <g transform="translate(96 0) rotate(180 24 24)"><use href="#sentry"/></g>
  <g transform="translate(144 0) rotate(-90 24 24)"><use href="#sentry"/></g>
  <g transform="translate(0 48)"><use href="#patrol"/></g>
  <g transform="translate(48 48) rotate(90 24 24)"><use href="#patrol"/></g>
  <g transform="translate(96 48) rotate(180 24 24)"><use href="#patrol"/></g>
  <g transform="translate(144 48) rotate(-90 24 24)"><use href="#patrol"/></g>
  <g transform="translate(0 96)"><use href="#pursuit"/></g>
  <g transform="translate(48 96) rotate(90 24 24)"><use href="#pursuit"/></g>
  <g transform="translate(96 96) rotate(180 24 24)"><use href="#pursuit"/></g>
  <g transform="translate(144 96) rotate(-90 24 24)"><use href="#pursuit"/></g>
</svg>
